<svg width="30" height="30" viewBox="0 0 30 30" fill="none" xmlns="http://www.w3.org/2000/svg">
<g clip-path="url(#clip0_176_1305)">
<path d="M0.410156 0.703003H29.6487V29.1798H0.410156V0.703003Z" fill="#7EBCF9"/>
<path d="M2.63721 2.98926H27.363V26.8937H2.63721V2.98926Z" fill="#30267E"/>
<path opacity="0.302" d="M22.0313 12.539L18.5156 13.5351L14.0039 9.31635L8.96486 9.84369L8.78908 14.414L7.61721 20.9179L17.1094 26.8945H27.3633V16.4648L22.0313 12.539ZM2.63721 2.98828H27.363V3.80848H2.63721V2.98828Z" fill="black"/>
<path d="M7.61334 9.00866C8.4009 8.86546 9.49285 8.75806 10.9786 8.75806C12.5896 8.75806 13.771 9.09819 14.5407 9.74255C15.2567 10.3333 15.7221 11.282 15.7221 12.4097C15.7221 13.5553 15.3641 14.504 14.6839 15.1484C13.8068 16.0256 12.4285 16.4372 10.8712 16.4372C10.4595 16.4372 10.0835 16.4193 9.79713 16.3656V20.9123H7.61328V9.00866H7.61334ZM9.79713 14.6293C10.0656 14.7009 10.4236 14.7187 10.8712 14.7187C12.5179 14.7187 13.5204 13.9132 13.5204 12.4992C13.5204 11.1566 12.5895 10.4406 11.068 10.4406C10.4594 10.4406 10.0298 10.4944 9.79713 10.548V14.6293ZM16.7064 18.8895C17.2077 19.1938 18.1563 19.516 18.944 19.516C19.9106 19.516 20.3402 19.1222 20.3402 18.5494C20.3402 17.9587 19.9822 17.6544 18.9082 17.2785C17.2077 16.6878 16.4917 15.757 16.5096 14.7367C16.5096 13.1973 17.7804 11.998 19.8032 11.998C20.7698 11.998 21.6111 12.2486 22.1123 12.5171L21.6827 14.0744C21.3068 13.8596 20.6087 13.5732 19.839 13.5732C19.0514 13.5732 18.6218 13.9491 18.6218 14.4861C18.6218 15.0409 19.0334 15.3095 20.1433 15.7033C21.7186 16.2761 22.4524 17.0816 22.4703 18.3704C22.4703 19.9457 21.2352 21.0913 18.9261 21.0913C17.8701 21.0913 16.9213 20.8407 16.2769 20.4827L16.7064 18.8895Z" fill="#7EBCF9"/>
</g>
<defs>
<clipPath id="clip0_176_1305">
<rect width="30" height="30" fill="white"/>
</clipPath>
</defs>
</svg>
