<svg width="30" height="30" viewBox="0 0 30 30" fill="none" xmlns="http://www.w3.org/2000/svg">
<path d="M15 17.6825C16.4822 17.6825 17.6838 16.4809 17.6838 14.9988C17.6838 13.5166 16.4822 12.315 15 12.315C13.5178 12.315 12.3163 13.5166 12.3163 14.9988C12.3163 16.4809 13.5178 17.6825 15 17.6825Z" fill="#53C1DE"/>
<path d="M5.6425 19.7512C5.90625 19.8387 6.17 19.9275 6.44 20.0037C6.3525 20.355 6.27625 20.7012 6.205 21.0587C5.59 24.3112 6.07 26.8887 7.605 27.7737C9.1875 28.6875 11.8475 27.75 14.4375 25.4825C14.6425 25.3012 14.8475 25.1137 15.0525 24.9137C15.31 25.1662 15.58 25.4062 15.8488 25.64C18.3563 27.7962 20.835 28.6687 22.365 27.785C23.9475 26.8712 24.4625 24.1 23.795 20.725C23.7425 20.4675 23.6838 20.2037 23.6188 19.9337C23.8063 19.8812 23.9875 19.8225 24.17 19.7637C27.5513 18.645 30 16.8337 30 14.9762C30 13.2012 27.6912 11.4787 24.5037 10.3825V10.3812C24.1875 10.2762 23.8713 10.1762 23.555 10.0825C23.6075 9.86624 23.655 9.64874 23.7013 9.43249C24.4225 5.93999 23.9475 3.13499 22.3475 2.20874C20.8062 1.32374 18.2925 2.24374 15.75 4.45874C15.4975 4.67499 15.2525 4.90374 15.0175 5.13249C14.8588 4.97999 14.695 4.82749 14.5312 4.68124C11.865 2.31374 9.19375 1.31749 7.59375 2.24999C6.05875 3.14124 5.60125 5.78374 6.24625 9.08624C6.31125 9.41499 6.38125 9.73624 6.4625 10.065C6.0875 10.17 5.71875 10.2875 5.3725 10.4112C2.24375 11.495 0 13.2062 0 14.9762C0 16.805 2.39 18.6375 5.6425 19.7512ZM13.6112 24.525C12.645 25.41 11.525 26.1125 10.3062 26.5937C9.65625 26.9037 8.90625 26.9337 8.2375 26.67C7.30625 26.1312 6.91875 24.0625 7.44625 21.2787C7.51125 20.9512 7.58125 20.6225 7.6625 20.3C8.975 20.5812 10.2987 20.775 11.6412 20.8737C12.415 21.97 13.2638 23.0187 14.1725 24.0025C13.985 24.1837 13.7975 24.36 13.61 24.5237L13.6112 24.525ZM21.0525 13.5225C20.7775 13.0062 20.4963 12.4912 20.2025 11.9875C19.915 11.49 19.6162 10.9975 19.3062 10.5112C20.25 10.6287 21.1525 10.7862 21.9963 10.98C21.7262 11.8475 21.41 12.6912 21.0525 13.5225ZM21.0637 16.44C21.4387 17.29 21.7675 18.1512 22.0537 19.0362C21.145 19.2412 20.2262 19.4 19.3 19.505C19.6162 19.0125 19.915 18.5087 20.2087 18.005C20.5075 17.4887 20.7887 16.9675 21.0637 16.44ZM20.3862 14.9825C19.9937 15.7912 19.5712 16.5875 19.1213 17.3725C18.6763 18.1512 18.2013 18.9075 17.7038 19.6575C16.8312 19.7225 15.9225 19.7512 15.0025 19.7512C14.0825 19.7512 13.1925 19.7225 12.3312 19.6687C11.8212 18.925 11.3412 18.1625 10.89 17.3837C10.4388 16.605 10.0225 15.8137 9.63 15.005H9.6275C10.0138 14.1962 10.4362 13.405 10.8813 12.6262C11.3263 11.8475 11.8075 11.0912 12.3112 10.3475C13.19 10.2825 14.0863 10.2475 15.0013 10.2475C15.9163 10.2475 16.8175 10.2825 17.6912 10.3475C18.1887 11.0862 18.6637 11.8412 19.115 12.615C19.5662 13.3887 19.9875 14.18 20.3862 14.9825ZM9.79 11.9987C9.5025 12.4962 9.22125 13.005 8.9575 13.5212C8.58875 12.6487 8.2775 11.7937 8.02 10.9675C8.86375 10.78 9.76 10.6275 10.6913 10.51C10.3825 10.9962 10.0775 11.4937 9.79 11.9987ZM8.95875 16.4862C9.22875 17.0025 9.50375 17.5125 9.79625 18.0162C10.095 18.5262 10.4 19.0362 10.7225 19.5337C9.80875 19.4337 8.9 19.2875 8.00375 19.0937C8.26125 18.25 8.58375 17.3775 8.95875 16.4862ZM15.0475 23.1C14.45 22.4562 13.8525 21.7425 13.2725 20.9737C13.835 20.9975 14.415 21.0087 15.0013 21.0087C15.605 21.0087 16.1962 20.9975 16.7825 20.9675C16.2437 21.7112 15.6637 22.4212 15.0475 23.1ZM22.7063 24.86C22.6525 25.5737 22.3013 26.2412 21.7388 26.6925C20.8075 27.2312 18.8212 26.5287 16.6763 24.6887C16.43 24.4775 16.1838 24.2487 15.9325 24.015C16.8288 23.025 17.655 21.9762 18.405 20.875C19.7463 20.7637 21.0825 20.5587 22.4012 20.26C22.46 20.5 22.5125 20.74 22.56 20.975C22.8475 22.2412 22.8938 23.5587 22.7063 24.86ZM23.215 11.29C23.52 11.3775 23.8125 11.4712 24.0938 11.565C26.8237 12.5025 28.74 13.8975 28.74 14.9637C28.74 16.1125 26.695 17.595 23.7712 18.5612C23.6075 18.6137 23.4437 18.6662 23.2738 18.7137C22.8637 17.4362 22.36 16.1887 21.78 14.975C22.3425 13.78 22.8175 12.5487 23.215 11.29ZM16.575 5.40749C18.7563 3.50999 20.7887 2.76624 21.715 3.29874C22.705 3.86749 23.0863 6.16374 22.465 9.18124C22.4237 9.37999 22.3825 9.57374 22.33 9.76749C21.0287 9.47499 19.7113 9.26374 18.3862 9.14624C17.625 8.05499 16.7925 7.01249 15.89 6.03374C16.1187 5.81749 16.3412 5.61249 16.575 5.40749ZM15.0125 6.93124C15.6275 7.59874 16.2075 8.30124 16.7463 9.02749C15.5863 8.97499 14.42 8.97499 13.26 9.02749C13.8337 8.27249 14.4263 7.56999 15.0125 6.93124ZM8.215 3.33999C9.2 2.76624 11.385 3.58624 13.6875 5.62499C13.8337 5.75374 13.98 5.89499 14.1325 6.03499C13.2238 7.01249 12.3863 8.05499 11.6187 9.14499C10.295 9.26249 8.9825 9.46749 7.68125 9.75499C7.605 9.45624 7.54125 9.15124 7.47625 8.84624C6.925 6.00999 7.28875 3.87249 8.215 3.33999ZM5.78375 11.6C6.1175 11.4825 6.4575 11.3775 6.7975 11.2775C7.19625 12.5487 7.67625 13.7975 8.2325 15.0037C7.67 16.2287 7.18375 17.4937 6.78 18.7825L6.77875 18.7837C6.5325 18.7137 6.2925 18.6375 6.0525 18.555C4.805 18.1625 3.38625 17.5412 2.36125 16.7275C1.77 16.3175 1.37125 15.685 1.26 14.975C1.26 13.9025 3.11125 12.5312 5.78375 11.6Z" fill="#53C1DE"/>
</svg>
